# 3ds Max Wavefront OBJ Exporter v0.97b - (c)2007 guruware
# File Created: 13.04.2015 09:07:37

#
# object Circle001
#

v  -1.9975 0.2588 -0.7685
v  -2.4948 0.2551 -0.4408
v  0.8867 0.2311 1.6446
v  0.8165 0.2266 2.0382
v  -2.1387 0.2477 0.2054
v  -2.4302 0.2419 0.7033
v  1.5244 0.2375 1.0902
v  1.6312 0.2333 1.4592
v  -1.8466 0.2373 1.1060
v  -1.8963 0.2309 1.6695
v  1.8451 0.2462 0.3350
v  2.0959 0.2429 0.6189
v  -1.1993 0.2295 1.7845
v  -0.9993 0.2233 2.3257
v  1.8076 0.2556 -0.4881
v  2.1607 0.2539 -0.3365
v  -0.2915 0.2256 2.1240
v  0.1409 0.2209 2.5335
v  1.3948 0.2642 -1.2361
v  1.7941 0.2644 -1.2573
v  0.6721 0.2265 2.0459
v  1.2138 0.2246 2.2174
v  0.7267 0.2698 -1.7249
v  1.0590 0.2719 -1.9085
v  1.4787 0.2321 1.5639
v  2.0421 0.2329 1.4897
v  -0.0791 0.2715 -1.8700
v  0.1441 0.2750 -2.1771
v  1.9975 0.2411 0.7742
v  2.4948 0.2449 0.4466
v  -0.8867 0.2688 -1.6389
v  -0.8165 0.2733 -2.0325
v  2.1387 0.2523 -0.1996
v  2.4302 0.2580 -0.6976
v  -1.5244 0.2625 -1.0844
v  -1.6312 0.2667 -1.4535
v  1.8466 0.2626 -1.1003
v  1.8963 0.2691 -1.6637
v  -1.8451 0.2538 -0.3292
v  -2.0959 0.2571 -0.6132
v  1.1993 0.2704 -1.7787
v  0.9993 0.2766 -2.3200
v  -1.8076 0.2443 0.4938
v  -2.1607 0.2461 0.3422
v  0.2915 0.2743 -2.1182
v  -0.1409 0.2790 -2.5278
v  -1.3948 0.2358 1.2419
v  -1.7941 0.2355 1.2631
v  -0.6721 0.2734 -2.0401
v  -1.2138 0.2754 -2.2117
v  -0.7267 0.2302 1.7306
v  -1.0590 0.2280 1.9142
v  -1.4787 0.2679 -1.5582
v  -2.0421 0.2671 -1.4840
v  0.0791 0.2285 1.8757
v  -0.1441 0.2250 2.1829
v  -0.6315 0.2569 -0.5965
v  -0.4749 0.2584 -0.7275
v  -0.7541 0.2550 -0.4334
v  -0.8315 0.2530 -0.2582
v  -0.8681 0.2508 -0.0706
v  -0.8631 0.2486 0.1215
v  -0.8167 0.2465 0.3069
v  -0.7304 0.2445 0.4778
v  -0.5994 0.2427 0.6343
v  -0.4363 0.2413 0.7570
v  -0.2611 0.2404 0.8343
v  -0.0735 0.2400 0.8709
v  0.1186 0.2401 0.8659
v  0.3041 0.2406 0.8196
v  0.4749 0.2416 0.7332
v  0.6315 0.2431 0.6023
v  0.7541 0.2450 0.4391
v  0.8315 0.2470 0.2640
v  0.8681 0.2491 0.0764
v  0.8631 0.2513 -0.1157
v  0.8167 0.2535 -0.3012
v  0.7304 0.2554 -0.4720
v  0.5994 0.2572 -0.6286
v  0.4363 0.2586 -0.7512
v  0.2611 0.2595 -0.8285
v  0.0735 0.2599 -0.8652
v  -0.1186 0.2599 -0.8602
v  -0.3041 0.2594 -0.8138
v  -1.9975 0.0089 -0.7714
v  -2.4948 0.0051 -0.4437
v  0.8867 -0.0188 1.6417
v  1.6312 -0.0167 1.4564
v  -2.1387 -0.0023 0.2025
v  -2.4302 -0.0080 0.7004
v  1.5244 -0.0125 1.0873
v  2.0959 -0.0071 0.6160
v  -1.8466 -0.0127 1.1031
v  -1.8963 -0.0191 1.6666
v  1.8451 -0.0038 0.3321
v  2.1607 0.0039 -0.3394
v  -1.1993 -0.0204 1.7816
v  -0.9993 -0.0267 2.3229
v  1.8076 0.0056 -0.4909
v  1.7941 0.0145 -1.2602
v  -0.2915 -0.0243 2.1211
v  0.1409 -0.0290 2.5307
v  1.3948 0.0142 -1.2390
v  1.0590 0.0219 -1.9114
v  0.6721 -0.0234 2.0430
v  1.2138 -0.0254 2.2145
v  0.7267 0.0198 -1.7278
v  0.1441 0.0250 -2.1800
v  1.4787 -0.0179 1.5611
v  2.0421 -0.0171 1.4869
v  -0.0791 0.0215 -1.8729
v  -0.8165 0.0234 -2.0353
v  1.9975 -0.0089 0.7714
v  2.4948 -0.0051 0.4437
v  -0.8867 0.0188 -1.6417
v  -1.6312 0.0167 -1.4564
v  2.1387 0.0023 -0.2025
v  2.4302 0.0080 -0.7004
v  -1.5244 0.0125 -1.0873
v  -2.0959 0.0071 -0.6160
v  1.8466 0.0127 -1.1031
v  1.8963 0.0191 -1.6666
v  -1.8451 0.0038 -0.3321
v  -2.1607 -0.0039 0.3394
v  1.1993 0.0204 -1.7816
v  0.9993 0.0267 -2.3229
v  -1.8076 -0.0056 0.4909
v  -1.7941 -0.0145 1.2602
v  0.2915 0.0243 -2.1211
v  -0.1409 0.0290 -2.5307
v  -1.3948 -0.0142 1.2390
v  -1.0590 -0.0219 1.9114
v  -0.6721 0.0234 -2.0430
v  -1.2138 0.0254 -2.2145
v  -0.7267 -0.0198 1.7278
v  -0.1441 -0.0250 2.1800
v  -1.4787 0.0179 -1.5611
v  -2.0421 0.0171 -1.4869
v  0.0791 -0.0215 1.8729
v  0.8165 -0.0234 2.0353
v  -0.6315 0.0069 -0.5994
v  -0.4749 0.0084 -0.7303
v  -0.3041 0.0094 -0.8167
v  -0.1186 0.0099 -0.8630
v  0.0735 0.0100 -0.8680
v  0.2611 0.0095 -0.8314
v  0.4363 0.0087 -0.7541
v  0.5994 0.0072 -0.6315
v  0.7304 0.0055 -0.4749
v  0.8167 0.0035 -0.3040
v  0.8631 0.0014 -0.1186
v  0.8681 -0.0008 0.0735
v  0.8315 -0.0030 0.2611
v  0.7541 -0.0050 0.4362
v  0.6315 -0.0069 0.5994
v  0.4749 -0.0084 0.7303
v  0.3041 -0.0094 0.8167
v  0.1186 -0.0099 0.8630
v  -0.0735 -0.0100 0.8680
v  -0.2611 -0.0095 0.8314
v  -0.4363 -0.0087 0.7541
v  -0.5994 -0.0072 0.6315
v  -0.7304 -0.0055 0.4749
v  -0.8167 -0.0035 0.3040
v  -0.8631 -0.0014 0.1186
v  -0.8681 0.0008 -0.0735
v  -0.8315 0.0030 -0.2611
v  -0.7541 0.0050 -0.4362
v  -0.0925 0.0010 -0.0878
v  -0.0663 0.0013 -0.1097
v  -0.1130 0.0007 -0.0605
v  -0.1227 0.0004 -0.0385
v  -0.1279 0.0001 -0.0116
v  -0.1271 -0.0002 0.0183
v  -0.1205 -0.0005 0.0449
v  -0.1097 -0.0008 0.0663
v  -0.0878 -0.0011 0.0925
v  -0.0605 -0.0013 0.1130
v  -0.0385 -0.0014 0.1227
v  -0.0116 -0.0015 0.1279
v  0.0183 -0.0015 0.1271
v  0.0449 -0.0014 0.1205
v  0.0663 -0.0013 0.1097
v  0.0925 -0.0010 0.0878
v  0.1130 -0.0007 0.0605
v  0.1227 -0.0004 0.0385
v  0.1279 -0.0001 0.0116
v  0.1271 0.0002 -0.0183
v  0.1205 0.0005 -0.0449
v  0.1097 0.0008 -0.0663
v  0.0878 0.0011 -0.0925
v  0.0605 0.0013 -0.1130
v  0.0385 0.0014 -0.1227
v  0.0116 0.0015 -0.1279
v  -0.0183 0.0015 -0.1271
v  -0.0449 0.0014 -0.1205
# 196 vertices

vn 0.0000 0.9999 0.0115
vn 0.0000 -0.9999 -0.0115
vn -0.5502 0.0096 -0.8349
vn -0.5249 -0.0098 0.8511
vn 0.2416 -0.0111 0.9703
vn 0.3156 0.0109 -0.9488
vn -0.8630 0.0058 -0.5052
vn -0.0974 -0.0114 0.9952
vn 0.6362 -0.0089 0.7715
vn -0.1226 0.0114 -0.9924
vn -0.9961 0.0010 -0.0877
vn 0.3360 -0.0108 0.9418
vn 0.9050 -0.0049 0.4253
vn -0.5338 0.0097 -0.8455
vn -0.9380 -0.0040 0.3465
vn 0.7080 -0.0081 0.7062
vn 0.9998 0.0002 -0.0175
vn -0.8511 0.0060 -0.5249
vn -0.6878 -0.0083 0.7259
vn 0.9489 -0.0036 0.3156
vn 0.8946 0.0051 -0.4468
vn -0.9952 0.0011 -0.0974
vn -0.3019 -0.0109 0.9533
vn 0.9925 0.0014 -0.1226
vn 0.6132 0.0091 -0.7898
vn -0.9419 -0.0039 0.3360
vn 0.1306 -0.0114 0.9914
vn 0.8456 0.0061 -0.5338
vn 0.2152 0.0112 -0.9765
vn -0.7062 -0.0081 0.7080
vn 0.5502 -0.0096 0.8349
vn 0.5249 0.0098 -0.8511
vn -0.2416 0.0111 -0.9703
vn -0.3156 -0.0109 0.9488
vn 0.8630 -0.0058 0.5052
vn 0.0974 0.0114 -0.9952
vn -0.6362 0.0089 -0.7715
vn 0.1226 -0.0114 0.9924
vn 0.9961 -0.0010 0.0877
vn -0.3360 0.0108 -0.9418
vn -0.9050 0.0049 -0.4253
vn 0.5338 -0.0097 0.8455
vn 0.9380 0.0040 -0.3465
vn -0.7080 0.0081 -0.7062
vn -0.9998 -0.0002 0.0175
vn 0.8511 -0.0060 0.5249
vn 0.6878 0.0083 -0.7259
vn -0.9489 0.0036 -0.3156
vn -0.8946 -0.0051 0.4468
vn 0.9952 -0.0011 0.0974
vn 0.3019 0.0109 -0.9533
vn -0.9925 -0.0014 0.1226
vn -0.6132 -0.0091 0.7898
vn 0.9419 0.0039 -0.3360
vn -0.1306 0.0114 -0.9914
vn -0.8456 -0.0061 0.5338
vn -0.2152 -0.0112 0.9765
vn 0.7062 0.0081 -0.7080
vn 0.6416 -0.0088 0.7670
vn 0.4509 -0.0102 0.8925
vn 0.2424 -0.0111 0.9701
vn 0.0260 -0.0115 0.9996
vn -0.1916 -0.0113 0.9814
vn -0.4039 -0.0105 0.9148
vn -0.6008 -0.0092 0.7994
vn -0.7670 -0.0074 0.6416
vn -0.8925 -0.0052 0.4509
vn -0.9702 -0.0028 0.2424
vn -0.9997 -0.0003 0.0260
vn -0.9815 0.0022 -0.1916
vn -0.9148 0.0046 -0.4038
vn -0.7994 0.0069 -0.6007
vn -0.6416 0.0088 -0.7670
vn -0.4510 0.0102 -0.8925
vn -0.2424 0.0111 -0.9701
vn -0.0260 0.0115 -0.9996
vn 0.1916 0.0113 -0.9814
vn 0.4039 0.0105 -0.9148
vn 0.6008 0.0092 -0.7994
vn 0.7670 0.0074 -0.6416
vn 0.8925 0.0052 -0.4509
vn 0.9702 0.0028 -0.2424
vn 0.9997 0.0003 -0.0260
vn 0.9815 -0.0022 0.1916
vn 0.9148 -0.0046 0.4038
vn 0.7994 -0.0069 0.6007
# 86 vertex normals

g Circle001
f 1//1 2//1 3//1 
f 3//2 4//2 1//2 
f 5//1 6//1 7//1 
f 7//2 8//2 5//2 
f 9//1 10//1 11//1 
f 11//2 12//2 9//2 
f 13//1 14//1 15//1 
f 15//2 16//2 13//2 
f 17//1 18//1 19//1 
f 19//2 20//2 17//2 
f 21//1 22//1 23//1 
f 23//2 24//2 21//2 
f 25//1 26//1 27//1 
f 27//2 28//2 25//2 
f 29//1 30//1 31//1 
f 31//2 32//2 29//2 
f 33//1 34//1 35//1 
f 35//2 36//2 33//2 
f 37//1 38//1 39//1 
f 39//2 40//2 37//2 
f 41//1 42//1 43//1 
f 43//2 44//2 41//2 
f 45//1 46//1 47//1 
f 47//2 48//2 45//2 
f 49//1 50//1 51//1 
f 51//2 52//2 49//2 
f 53//1 54//1 55//1 
f 55//2 56//2 53//2 
f 4//1 3//1 57//1 
f 57//2 58//2 4//2 
f 3//1 8//1 59//1 
f 59//2 57//2 3//2 
f 8//1 7//1 60//1 
f 60//2 59//2 8//2 
f 7//1 12//1 61//1 
f 61//2 60//2 7//2 
f 12//1 11//1 62//1 
f 62//2 61//2 12//2 
f 11//1 16//1 63//1 
f 63//2 62//2 11//2 
f 16//1 15//1 64//1 
f 64//2 63//2 16//2 
f 15//1 20//1 65//1 
f 65//2 64//2 15//2 
f 20//1 19//1 66//1 
f 66//2 65//2 20//2 
f 19//1 24//1 67//1 
f 67//2 66//2 19//2 
f 24//1 23//1 68//1 
f 68//2 67//2 24//2 
f 23//1 28//1 69//1 
f 69//2 68//2 23//2 
f 28//1 27//1 70//1 
f 70//2 69//2 28//2 
f 27//1 32//1 71//1 
f 71//2 70//2 27//2 
f 32//1 31//1 72//1 
f 72//2 71//2 32//2 
f 31//1 36//1 73//1 
f 73//2 72//2 31//2 
f 36//1 35//1 74//1 
f 74//2 73//2 36//2 
f 35//1 40//1 75//1 
f 75//2 74//2 35//2 
f 40//1 39//1 76//1 
f 76//2 75//2 40//2 
f 39//1 44//1 77//1 
f 77//2 76//2 39//2 
f 44//1 43//1 78//1 
f 78//2 77//2 44//2 
f 43//1 48//1 79//1 
f 79//2 78//2 43//2 
f 48//1 47//1 80//1 
f 80//2 79//2 48//2 
f 47//1 52//1 81//1 
f 81//2 80//2 47//2 
f 52//1 51//1 82//1 
f 82//2 81//2 52//2 
f 51//1 56//1 83//1 
f 83//2 82//2 51//2 
f 56//1 55//1 84//1 
f 84//2 83//2 56//2 
f 55//1 4//1 58//1 
f 58//2 84//2 55//2 
f 85//3 86//3 2//3 
f 2//3 1//3 85//3 
f 86//4 87//4 3//4 
f 3//4 2//4 86//4 
f 87//5 88//5 8//5 
f 8//5 3//5 87//5 
f 88//6 89//6 5//6 
f 5//6 8//6 88//6 
f 89//7 90//7 6//7 
f 6//7 5//7 89//7 
f 90//8 91//8 7//8 
f 7//8 6//8 90//8 
f 91//9 92//9 12//9 
f 12//9 7//9 91//9 
f 92//10 93//10 9//10 
f 9//10 12//10 92//10 
f 93//11 94//11 10//11 
f 10//11 9//11 93//11 
f 94//12 95//12 11//12 
f 11//12 10//12 94//12 
f 95//13 96//13 16//13 
f 16//13 11//13 95//13 
f 96//14 97//14 13//14 
f 13//14 16//14 96//14 
f 97//15 98//15 14//15 
f 14//15 13//15 97//15 
f 98//16 99//16 15//16 
f 15//16 14//16 98//16 
f 99//17 100//17 20//17 
f 20//17 15//17 99//17 
f 100//18 101//18 17//18 
f 17//18 20//18 100//18 
f 101//19 102//19 18//19 
f 18//19 17//19 101//19 
f 102//20 103//20 19//20 
f 19//20 18//20 102//20 
f 103//21 104//21 24//21 
f 24//21 19//21 103//21 
f 104//22 105//22 21//22 
f 21//22 24//22 104//22 
f 105//23 106//23 22//23 
f 22//23 21//23 105//23 
f 106//24 107//24 23//24 
f 23//24 22//24 106//24 
f 107//25 108//25 28//25 
f 28//25 23//25 107//25 
f 108//26 109//26 25//26 
f 25//26 28//26 108//26 
f 109//27 110//27 26//27 
f 26//27 25//27 109//27 
f 110//28 111//28 27//28 
f 27//28 26//28 110//28 
f 111//29 112//29 32//29 
f 32//29 27//29 111//29 
f 112//30 113//30 29//30 
f 29//30 32//30 112//30 
f 113//31 114//31 30//31 
f 30//31 29//31 113//31 
f 114//32 115//32 31//32 
f 31//32 30//32 114//32 
f 115//33 116//33 36//33 
f 36//33 31//33 115//33 
f 116//34 117//34 33//34 
f 33//34 36//34 116//34 
f 117//35 118//35 34//35 
f 34//35 33//35 117//35 
f 118//36 119//36 35//36 
f 35//36 34//36 118//36 
f 119//37 120//37 40//37 
f 40//37 35//37 119//37 
f 120//38 121//38 37//38 
f 37//38 40//38 120//38 
f 121//39 122//39 38//39 
f 38//39 37//39 121//39 
f 122//40 123//40 39//40 
f 39//40 38//40 122//40 
f 123//41 124//41 44//41 
f 44//41 39//41 123//41 
f 124//42 125//42 41//42 
f 41//42 44//42 124//42 
f 125//43 126//43 42//43 
f 42//43 41//43 125//43 
f 126//44 127//44 43//44 
f 43//44 42//44 126//44 
f 127//45 128//45 48//45 
f 48//45 43//45 127//45 
f 128//46 129//46 45//46 
f 45//46 48//46 128//46 
f 129//47 130//47 46//47 
f 46//47 45//47 129//47 
f 130//48 131//48 47//48 
f 47//48 46//48 130//48 
f 131//49 132//49 52//49 
f 52//49 47//49 131//49 
f 132//50 133//50 49//50 
f 49//50 52//50 132//50 
f 133//51 134//51 50//51 
f 50//51 49//51 133//51 
f 134//52 135//52 51//52 
f 51//52 50//52 134//52 
f 135//53 136//53 56//53 
f 56//53 51//53 135//53 
f 136//54 137//54 53//54 
f 53//54 56//54 136//54 
f 137//55 138//55 54//55 
f 54//55 53//55 137//55 
f 138//56 139//56 55//56 
f 55//56 54//56 138//56 
f 139//57 140//57 4//57 
f 4//57 55//57 139//57 
f 140//58 85//58 1//58 
f 1//58 4//58 140//58 
f 141//59 142//59 58//59 
f 58//59 57//59 141//59 
f 142//60 143//60 84//60 
f 84//60 58//60 142//60 
f 143//61 144//61 83//61 
f 83//61 84//61 143//61 
f 144//62 145//62 82//62 
f 82//62 83//62 144//62 
f 145//63 146//63 81//63 
f 81//63 82//63 145//63 
f 146//64 147//64 80//64 
f 80//64 81//64 146//64 
f 147//65 148//65 79//65 
f 79//65 80//65 147//65 
f 148//66 149//66 78//66 
f 78//66 79//66 148//66 
f 149//67 150//67 77//67 
f 77//67 78//67 149//67 
f 150//68 151//68 76//68 
f 76//68 77//68 150//68 
f 151//69 152//69 75//69 
f 75//69 76//69 151//69 
f 152//70 153//70 74//70 
f 74//70 75//70 152//70 
f 153//71 154//71 73//71 
f 73//71 74//71 153//71 
f 154//72 155//72 72//72 
f 72//72 73//72 154//72 
f 155//73 156//73 71//73 
f 71//73 72//73 155//73 
f 156//74 157//74 70//74 
f 70//74 71//74 156//74 
f 157//75 158//75 69//75 
f 69//75 70//75 157//75 
f 158//76 159//76 68//76 
f 68//76 69//76 158//76 
f 159//77 160//77 67//77 
f 67//77 68//77 159//77 
f 160//78 161//78 66//78 
f 66//78 67//78 160//78 
f 161//79 162//79 65//79 
f 65//79 66//79 161//79 
f 162//80 163//80 64//80 
f 64//80 65//80 162//80 
f 163//81 164//81 63//81 
f 63//81 64//81 163//81 
f 164//82 165//82 62//82 
f 62//82 63//82 164//82 
f 165//83 166//83 61//83 
f 61//83 62//83 165//83 
f 166//84 167//84 60//84 
f 60//84 61//84 166//84 
f 167//85 168//85 59//85 
f 59//85 60//85 167//85 
f 168//86 141//86 57//86 
f 57//86 59//86 168//86 
f 142//1 141//1 169//1 
f 169//1 170//1 142//1 
f 141//1 168//1 171//1 
f 171//1 169//1 141//1 
f 168//1 167//1 172//1 
f 172//1 171//1 168//1 
f 167//1 166//1 173//1 
f 173//1 172//1 167//1 
f 166//1 165//1 174//1 
f 174//1 173//1 166//1 
f 165//1 164//1 175//1 
f 175//1 174//1 165//1 
f 164//1 163//1 176//1 
f 176//1 175//1 164//1 
f 163//1 162//1 177//1 
f 177//1 176//1 163//1 
f 162//1 161//1 178//1 
f 178//1 177//1 162//1 
f 161//1 160//1 179//1 
f 179//1 178//1 161//1 
f 160//1 159//1 180//1 
f 180//1 179//1 160//1 
f 159//1 158//1 181//1 
f 181//1 180//1 159//1 
f 158//1 157//1 182//1 
f 182//1 181//1 158//1 
f 157//1 156//1 183//1 
f 183//1 182//1 157//1 
f 156//1 155//1 184//1 
f 184//1 183//1 156//1 
f 155//1 154//1 185//1 
f 185//1 184//1 155//1 
f 154//1 153//1 186//1 
f 186//1 185//1 154//1 
f 153//1 152//1 187//1 
f 187//1 186//1 153//1 
f 152//1 151//1 188//1 
f 188//1 187//1 152//1 
f 151//1 150//1 189//1 
f 189//1 188//1 151//1 
f 150//1 149//1 190//1 
f 190//1 189//1 150//1 
f 149//1 148//1 191//1 
f 191//1 190//1 149//1 
f 148//1 147//1 192//1 
f 192//1 191//1 148//1 
f 147//1 146//1 193//1 
f 193//1 192//1 147//1 
f 146//1 145//1 194//1 
f 194//1 193//1 146//1 
f 145//1 144//1 195//1 
f 195//1 194//1 145//1 
f 144//1 143//1 196//1 
f 196//1 195//1 144//1 
f 143//1 142//1 170//1 
f 170//1 196//1 143//1 
# 308 faces

